<?xml version="1.0" standalone="no"?><!DOCTYPE svg PUBLIC "-//W3C//DTD SVG 1.1//EN" "http://www.w3.org/Graphics/SVG/1.1/DTD/svg11.dtd"><svg t="1750146773780" class="icon" viewBox="0 0 1024 1024" version="1.1" xmlns="http://www.w3.org/2000/svg" p-id="11673" xmlns:xlink="http://www.w3.org/1999/xlink" width="200" height="200"><path d="M688 123.2c28.8 0 54.4 16 68.8 40l182.4 315.2c11.2 19.2 11.2 44.8 0 64L758.4 859.2c-14.4 24-40 40-68.8 40H332.8c-28.8 0-54.4-16-68.8-40L86.4 550.4c-14.4-24-14.4-56 0-80l177.6-307.2c14.4-24 40-40 68.8-40H688z m0 64H332.8c-6.4 0-11.2 3.2-14.4 8L140.8 502.4c-3.2 4.8-3.2 11.2 0 16l177.6 307.2c3.2 4.8 8 8 14.4 8H688c6.4 0 11.2-3.2 14.4-8l182.4-315.2-182.4-315.2c-3.2-4.8-8-8-14.4-8zM496 304c51.2 0 89.6 9.6 115.2 28.8 24 19.2 36.8 48 36.8 88 0 49.6-25.6 84.8-78.4 105.6l105.6 164.8c1.6 3.2 1.6 8-3.2 11.2 0 1.6-1.6 1.6-3.2 1.6h-51.2c-6.4 0-11.2-3.2-14.4-8L512 544h-64v144c0 9.6-6.4 16-16 16h-33.6c-9.6 0-16-6.4-16-16V320c0-9.6 6.4-16 16-16H496z m-4.8 56H448v131.2h44.8c30.4 0 52.8-6.4 65.6-17.6s20.8-28.8 20.8-49.6c0-22.4-8-38.4-22.4-48s-35.2-16-65.6-16z" fill-opacity=".85" p-id="11674"></path></svg>