<?xml version="1.0" standalone="no"?><!DOCTYPE svg PUBLIC "-//W3C//DTD SVG 1.1//EN" "http://www.w3.org/Graphics/SVG/1.1/DTD/svg11.dtd"><svg t="1750146765648" class="icon" viewBox="0 0 1024 1024" version="1.1" xmlns="http://www.w3.org/2000/svg" p-id="11384" xmlns:xlink="http://www.w3.org/1999/xlink" width="200" height="200"><path d="M866.68 841.75H157.52A93.61 93.61 0 0 1 64 748.24v-473a93.61 93.61 0 0 1 93.51-93.51h709.17a93.61 93.61 0 0 1 93.51 93.51v473a93.61 93.61 0 0 1-93.51 93.51zM157.52 238.83a36.47 36.47 0 0 0-36.43 36.43v473a36.47 36.47 0 0 0 36.43 36.43h709.16a36.47 36.47 0 0 0 36.43-36.43v-473a36.47 36.47 0 0 0-36.43-36.43z" p-id="11385"></path><path d="M402.22 499.58c-6.9-3.14-18.83-6.6-36.48-10.59-22-5-26.66-8.48-27.44-9.18a9.15 9.15 0 0 1-3.18-7.39c0-2.38 0.55-6 5.34-9.82 2.84-2.27 9-5 22-5 9.93 0 17.28 1.89 21.81 5.62 4.37 3.59 6.9 9 7.72 16.67l0.91 8.45 36.86-2.77-0.33-8.46a56.46 56.46 0 0 0-9.15-29.24c-5.74-8.74-14-15.41-24.45-19.83-9.94-4.19-21.46-6.32-34.23-6.32a83.89 83.89 0 0 0-32.19 6c-10.27 4.25-18.26 10.65-23.72 19a48.77 48.77 0 0 0-8.18 27 44.65 44.65 0 0 0 6.88 24.25c4.5 7.12 11.27 13.08 20.08 17.7 6.5 3.45 17.1 6.92 32.4 10.59 17.42 4.18 24.21 6.28 26.9 7.33 6.25 2.38 9.07 4.82 10.34 6.45a11.66 11.66 0 0 1 2.44 7.53 13.81 13.81 0 0 1-2.79 8.31c-1.94 2.69-5.18 4.93-9.62 6.65a49.4 49.4 0 0 1-17.83 2.94 51.45 51.45 0 0 1-20.62-3.93c-5.56-2.42-9.6-5.47-12-9.07-2.59-3.84-4.29-9-5-15.47l-1-8.46-36.34 3.18 0.22 8.27a61.9 61.9 0 0 0 10.07 32.83 58.91 58.91 0 0 0 26.48 21.95c10.67 4.6 23.87 6.93 39.23 6.93a80.93 80.93 0 0 0 33.94-7c10.47-4.8 18.66-11.68 24.35-20.47a51.59 51.59 0 0 0 8.59-28.41 47.85 47.85 0 0 0-8-27.26c-5.35-7.66-13.38-14.08-24.01-18.98zM694.55 424.4v99.47c0 22.72-4.62 31-7.38 34-4.75 5.06-13.59 7.62-26.29 7.62-7.36 0-13.53-1.38-18.34-4.11a20.17 20.17 0 0 1-9.23-10.52c-1.46-3.72-3.2-11.42-3.2-27V424.4h-82l-65.62 65.53V424.4h-38.34v174.71h38.36v-59.54l15.69-15.3 52.65 74.83h49.37l-74.56-101.27L591.75 434v90c0 18 2.18 32 6.68 42.77a52.2 52.2 0 0 0 24 26.37c10.62 5.75 24.18 8.67 40.31 8.67 16.75 0 30.67-3.39 41.36-10.07 10.93-6.83 18.64-15.9 22.89-27 4-10.4 5.94-23.74 5.94-40.78V424.4z" p-id="11386"></path></svg>