<?xml version="1.0" standalone="no"?><!DOCTYPE svg PUBLIC "-//W3C//DTD SVG 1.1//EN" "http://www.w3.org/Graphics/SVG/1.1/DTD/svg11.dtd"><svg t="1750146769668" class="icon" viewBox="0 0 1025 1024" version="1.1" xmlns="http://www.w3.org/2000/svg" p-id="11531" xmlns:xlink="http://www.w3.org/1999/xlink" width="200.1953125" height="200"><path d="M998.114 947.052h-51.203V460.798c0-28.248-22.956-51.168-51.134-51.168H639.832v51.168h230.31c14.09 0 25.636 11.478 25.636 25.6v435.087c0 14.158-11.547 25.567-25.636 25.567H562.993V76.948c0-28.248-22.887-51.203-51.134-51.203H127.976c-28.248 0-51.168 22.955-51.168 51.203v870.104H25.605c-14.123 0-25.6 11.478-25.6 25.567 0 14.158 11.478 25.636 25.6 25.636h972.51c14.089 0 25.635-11.478 25.635-25.636 0-14.09-11.547-25.567-25.636-25.567z m-486.255 0H127.976V102.515c0-14.124 11.478-25.567 25.6-25.567h332.681c14.124 0 25.601 11.443 25.601 25.567v844.537zM204.746 409.629h76.77v-76.77h-76.77v76.77z m0-153.54h76.77v-76.804h-76.77v76.804zM358.32 409.63h76.77v-76.77h-76.77v76.77z m0-153.54h76.77v-76.804h-76.77v76.804z" p-id="11532"></path></svg>