<?xml version="1.0" standalone="no"?><!DOCTYPE svg PUBLIC "-//W3C//DTD SVG 1.1//EN" "http://www.w3.org/Graphics/SVG/1.1/DTD/svg11.dtd"><svg t="1750146757177" class="icon" viewBox="0 0 1024 1024" version="1.1" xmlns="http://www.w3.org/2000/svg" p-id="11091" xmlns:xlink="http://www.w3.org/1999/xlink" width="200" height="200"><path d="M566.7 679.16h57.21v111.68H566.7zM454.87 679.16h57.21v111.68h-57.21zM343.88 511.75h-224.2A55.63 55.63 0 0 0 64 567.34V904a55.63 55.63 0 0 0 55.66 55.59h224.2A55.63 55.63 0 0 0 399.54 904V567.34a55.63 55.63 0 0 0-55.66-55.59zM342.33 886a16.58 16.58 0 0 1-16.59 16.57H137.82a16.58 16.58 0 0 1-16.6-16.57V585.34a16.58 16.58 0 0 1 16.59-16.57h187.93a16.58 16.58 0 0 1 16.59 16.57zM944.38 704.06L804.65 579.65c-19.18-17.09-50.26-17.09-69.56-0.17v99.67h-57.21v111.69h57.21v100c19.29 16.92 50.33 16.92 69.56-0.17l139.73-124.4c19.29-17.2 19.29-45.06 0-62.21zM399.73 232.66h57.21v111.68h-57.21zM511.56 232.66h57.21v111.68h-57.21zM904 63.95H679.76a55.63 55.63 0 0 0-55.66 55.59v336.62a55.63 55.63 0 0 0 55.66 55.59H904a55.63 55.63 0 0 0 55.66-55.59V119.54A55.63 55.63 0 0 0 904 63.95z m-1.55 374.22a16.58 16.58 0 0 1-16.59 16.57H697.9a16.58 16.58 0 0 1-16.59-16.57V137.54A16.58 16.58 0 0 1 697.9 121h187.92a16.58 16.58 0 0 1 16.59 16.57zM79.25 319.44L219 443.85c19.18 17.09 50.26 17.09 69.56 0.17v-99.67h57.21V232.66h-57.23v-100c-19.29-16.92-50.33-16.92-69.56 0.17L79.25 257.24c-19.25 17.19-19.25 45.06 0 62.2z" p-id="11092"></path></svg>